<svg xmlns="http://www.w3.org/2000/svg" style="display:none">
<symbol id="arrow" viewBox="0 0 24 24"><path d="M5 12h14m-6-6 6 6-6 6" fill="none" stroke="currentColor" stroke-width="1.7" stroke-linecap="round" stroke-linejoin="round"/></symbol>
<symbol id="parts" viewBox="0 0 24 24"><path d="M12 3 3.5 7.5 12 12l8.5-4.5L12 3Z" fill="none" stroke="currentColor" stroke-width="1.5" stroke-linejoin="round"/><path d="M3.5 12 12 16.5l8.5-4.5M3.5 16.5 12 21l8.5-4.5" fill="none" stroke="currentColor" stroke-width="1.5" stroke-linecap="round" stroke-linejoin="round"/></symbol>
<symbol id="wrench" viewBox="0 0 24 24"><path d="M14.5 6.2a5 5 0 0 0-6.7 6.7L3.5 17.2a2.3 2.3 0 0 0 3.3 3.3l4.3-4.3a5 5 0 0 0 6.7-6.7l-3 3-3.5-3.5 3.2-2.8Z" fill="none" stroke="currentColor" stroke-width="1.5" stroke-linecap="round" stroke-linejoin="round"/></symbol>
<symbol id="check" viewBox="0 0 24 24"><path d="m5 12 4 4L19 6" fill="none" stroke="currentColor" stroke-width="1.8" stroke-linecap="round" stroke-linejoin="round"/></symbol>
<symbol id="phone" viewBox="0 0 24 24"><path d="M7 3h3l1.4 4-2 1.5a15 15 0 0 0 6.1 6.1l1.5-2 4 1.4v3c0 1.1-.9 2-2 2C10.2 19 5 13.8 5 7c0-1.1.9-2 2-2Z" fill="none" stroke="currentColor" stroke-width="1.5" stroke-linecap="round" stroke-linejoin="round"/></symbol>
<symbol id="mail" viewBox="0 0 24 24"><rect x="3" y="5" width="18" height="14" rx="1.5" fill="none" stroke="currentColor" stroke-width="1.5"/><path d="m4 7 8 6 8-6" fill="none" stroke="currentColor" stroke-width="1.5" stroke-linecap="round" stroke-linejoin="round"/></symbol>
<symbol id="chat" viewBox="0 0 24 24"><path d="M20 11.5a7.5 7.5 0 0 1-11.3 6.5L4 19l1-4.4A7.5 7.5 0 1 1 20 11.5Z" fill="none" stroke="currentColor" stroke-width="1.5" stroke-linejoin="round"/><path d="M8 11.5h8" stroke="currentColor" stroke-width="1.5" stroke-linecap="round"/></symbol>
</svg>
